# xmcd CD database file
#
# Track frame offsets:
#	150
#	13232
#	29114
#	41826
#	59359
#	77393
#	89430
#	103536
#	120714
#	138637
#	150228
#	175089
#
# Disc length: 2478 seconds
#
# Revision: 0
# Processed by: cddbd v1.5.2PL0 Copyright (c) Steve Scherf et al.
# Submitted via: CDex 1.51
#
DISCID=9909ac0c
DTITLE=ROOMFUL OF BLUES - Hook, Line - Sinker
DYEAR=2011
DGENRE=Blues
TTITLE0=That's A Pretty Good Love
TTITLE1=She Walks Right In
TTITLE2=Hook, Line And Sinker
TTITLE3=Kill Me
TTITLE4=Gate Walks To Board
TTITLE5=Juice, Juice, Juice
TTITLE6=Ain't Nothin' Happenin'
TTITLE7=Win With Me, Baby
TTITLE8=It
TTITLE9=Come On Home
TTITLE10=Time Brings About A Change
TTITLE11=Just A Little Love
EXTD=YEAR: 2011
EXTT0=
EXTT1=
EXTT2=
EXTT3=
EXTT4=
EXTT5=
EXTT6=
EXTT7=
EXTT8=
EXTT9=
EXTT10=
EXTT11=
PLAYORDER=
